<?xml version="1.0" encoding="utf-8"?>
<svg xmlns="http://www.w3.org/2000/svg" version="1.1" width="2048px" height="1536px" style="shape-rendering:geometricPrecision; text-rendering:geometricPrecision; image-rendering:optimizeQuality; fill-rule:evenodd; clip-rule:evenodd">
  <g transform="matrix(1, 0, 0, 1, -124.225177, 2703.881735)"/>
  <g>
    <path style="opacity:1" fill="#f8f8f8" d="M 847.5,322.5 C 963.834,322.333 1080.17,322.5 1196.5,323C 1250.84,329.412 1293.68,354.912 1325,399.5C 1381.59,497.003 1437.92,594.67 1494,692.5C 1515.26,743.459 1514.59,794.126 1492,844.5C 1436.4,941.758 1380.4,1038.76 1324,1135.5C 1291.32,1180.45 1247.15,1205.62 1191.5,1211C 1077.5,1211.67 963.5,1211.67 849.5,1211C 794.209,1203.29 751.043,1176.46 720,1130.5C 663.575,1033.99 607.908,936.989 553,839.5C 530.358,785.048 532.692,731.714 560,679.5C 611.667,590.167 663.333,500.833 715,411.5C 745.333,361.349 789.5,331.682 847.5,322.5 Z"/>
  </g>
  <g>
    <path style="opacity:1" fill="#000000" d="M 923.5,343.5 C 963.068,341.697 991.234,358.697 1008,394.5C 1019.75,431.524 1011.25,462.857 982.5,488.5C 961.422,503.019 938.089,508.186 912.5,504C 880.387,494.221 860.221,473.054 852,440.5C 846.669,396.984 863.836,366.151 903.5,348C 909.904,345.286 916.571,343.786 923.5,343.5 Z"/>
  </g>
  <g>
    <path style="opacity:1" fill="#6a6a6f" d="M 923.5,343.5 C 976.998,342.335 1030.67,342.168 1084.5,343C 1087.46,343.279 1090.12,344.113 1092.5,345.5C 1042.75,366.332 1025.09,402.998 1039.5,455.5C 1020.76,466.891 1001.76,477.891 982.5,488.5C 1011.25,462.857 1019.75,431.524 1008,394.5C 991.234,358.697 963.068,341.697 923.5,343.5 Z"/>
  </g>
  <g>
    <path style="opacity:1" fill="#010101" d="M 1092.5,345.5 C 1104.49,348.643 1112.99,355.976 1118,367.5C 1124.86,386.541 1121.03,403.041 1106.5,417C 1084.47,430.351 1062.13,443.184 1039.5,455.5C 1025.09,402.998 1042.75,366.332 1092.5,345.5 Z"/>
  </g>
  <g>
    <path style="opacity:1" fill="#010101" d="M 1263.5,471.5 C 1263.83,483.012 1263.49,494.346 1262.5,505.5C 1209.5,505.667 1156.5,505.5 1103.5,505C 1082.24,501.039 1064.58,490.872 1050.5,474.5C 1082.94,455.108 1115.61,435.941 1148.5,417C 1169.72,404.382 1192.05,402.049 1215.5,410C 1243.14,421.461 1259.14,441.961 1263.5,471.5 Z"/>
  </g>
  <g>
    <path style="opacity:1" fill="#010101" d="M 853.5,503.5 C 839.516,504.833 825.183,505.499 810.5,505.5C 796.167,505.333 781.833,505.167 767.5,505C 751.104,501.943 740.271,492.443 735,476.5C 732.017,462.913 734.851,450.913 743.5,440.5C 783.868,428.234 816.701,438.901 842,472.5C 847.813,482.077 851.647,492.411 853.5,503.5 Z"/>
  </g>
  <g>
    <path style="opacity:1" fill="#696a6f" d="M 743.5,440.5 C 734.851,450.913 732.017,462.913 735,476.5C 740.271,492.443 751.104,501.943 767.5,505C 781.833,505.167 796.167,505.333 810.5,505.5C 825.183,505.499 839.516,504.833 853.5,503.5C 854.833,509.833 854.833,516.167 853.5,522.5C 852.596,523.209 852.263,524.209 852.5,525.5C 811.997,525.168 771.663,525.501 731.5,526.5C 692.764,531.399 669.597,553.066 662,591.5C 660.765,607.661 663.765,622.994 671,637.5C 675.526,645.23 680.026,652.896 684.5,660.5C 664.571,670.817 647.071,667.484 632,650.5C 621.581,636.479 619.915,621.479 627,605.5C 653.333,560.167 679.667,514.833 706,469.5C 715.548,455.832 728.048,446.166 743.5,440.5 Z"/>
  </g>
  <g>
    <path style="opacity:1" fill="#696a6f" d="M 1050.5,474.5 C 1064.58,490.872 1082.24,501.039 1103.5,505C 1156.5,505.5 1209.5,505.667 1262.5,505.5C 1262.5,512.167 1262.5,518.833 1262.5,525.5C 1234,525.169 1205.66,525.502 1177.5,526.5C 1143.14,529.358 1119.31,546.691 1106,578.5C 1098.59,598.588 1098.92,618.588 1107,638.5C 1112.4,647.723 1117.56,657.056 1122.5,666.5C 1091.89,649.529 1061.56,632.029 1031.5,614C 1001.02,587.239 992.851,554.739 1007,516.5C 1016.46,497.204 1030.96,483.204 1050.5,474.5 Z"/>
  </g>
  <g>
    <path style="opacity:1" fill="#69696e" d="M 1445.5,689.5 C 1442.05,674.547 1432.71,665.38 1417.5,662C 1400.72,658.923 1387.22,664.09 1377,677.5C 1363.14,701.888 1349.31,726.221 1335.5,750.5C 1328.64,747.576 1322.31,743.909 1316.5,739.5C 1337.48,704.892 1357.98,669.892 1378,634.5C 1390.48,605.623 1387.48,578.623 1369,553.5C 1356.3,539.066 1340.46,530.232 1321.5,527C 1309.5,526.5 1297.5,526.333 1285.5,526.5C 1285.5,578.5 1285.5,630.5 1285.5,682.5C 1284.83,655.835 1284.5,629.002 1284.5,602C 1284.35,573.461 1284.85,544.961 1286,516.5C 1294.85,492.343 1312.02,482.51 1337.5,487C 1347.87,489.768 1356.04,495.602 1362,504.5C 1388.33,550.5 1414.67,596.5 1441,642.5C 1447.58,657.839 1449.08,673.505 1445.5,689.5 Z"/>
  </g>
  <g>
    <path style="opacity:1" fill="#4a4b4b" d="M 853.5,522.5 C 853.5,523.833 853.5,525.167 853.5,526.5C 812.833,526.5 772.167,526.5 731.5,526.5C 771.663,525.501 811.997,525.168 852.5,525.5C 852.263,524.209 852.596,523.209 853.5,522.5 Z"/>
  </g>
  <g>
    <path style="opacity:1" fill="#626263" d="M 1263.5,471.5 C 1264.83,519.5 1264.83,567.5 1263.5,615.5C 1263.5,585.833 1263.5,556.167 1263.5,526.5C 1234.83,526.5 1206.17,526.5 1177.5,526.5C 1205.66,525.502 1234,525.169 1262.5,525.5C 1262.5,518.833 1262.5,512.167 1262.5,505.5C 1263.49,494.346 1263.83,483.012 1263.5,471.5 Z"/>
  </g>
  <g>
    <path style="opacity:1" fill="#000000" d="M 731.5,526.5 C 772.167,526.5 812.833,526.5 853.5,526.5C 850.354,548.302 840.354,566.136 823.5,580C 777.439,607.362 731.106,634.195 684.5,660.5C 680.026,652.896 675.526,645.23 671,637.5C 663.765,622.994 660.765,607.661 662,591.5C 669.597,553.066 692.764,531.399 731.5,526.5 Z"/>
  </g>
  <g>
    <path style="opacity:1" fill="#000000" d="M 1177.5,526.5 C 1206.17,526.5 1234.83,526.5 1263.5,526.5C 1263.5,556.167 1263.5,585.833 1263.5,615.5C 1257.43,658.073 1233.09,682.573 1190.5,689C 1175.91,690.249 1161.91,687.916 1148.5,682C 1139.6,677.059 1130.94,671.892 1122.5,666.5C 1117.56,657.056 1112.4,647.723 1107,638.5C 1098.92,618.588 1098.59,598.588 1106,578.5C 1119.31,546.691 1143.14,529.358 1177.5,526.5 Z"/>
  </g>
  <g>
    <path style="opacity:1" fill="#000000" d="M 1316.5,739.5 C 1298.1,725.051 1287.77,706.051 1285.5,682.5C 1285.5,630.5 1285.5,578.5 1285.5,526.5C 1297.5,526.333 1309.5,526.5 1321.5,527C 1340.46,530.232 1356.3,539.066 1369,553.5C 1387.48,578.623 1390.48,605.623 1378,634.5C 1357.98,669.892 1337.48,704.892 1316.5,739.5 Z"/>
  </g>
  <g>
    <path style="opacity:1" fill="#000000" d="M 887.5,731.5 C 881.319,742.529 874.485,753.195 867,763.5C 837.133,792.95 803.3,798.45 765.5,780C 753,772.833 743.167,763 736,750.5C 722.488,726.806 708.988,703.139 695.5,679.5C 723.152,662.335 751.485,646.168 780.5,631C 821.05,620.292 853.216,632.125 877,666.5C 882.128,675.549 885.461,685.216 887,695.5C 887.5,707.495 887.667,719.495 887.5,731.5 Z"/>
  </g>
  <g>
    <path style="opacity:1" fill="#000000" d="M 983.5,630.5 C 997.914,629.29 1011.91,631.124 1025.5,636C 1063.49,656.657 1100.82,678.323 1137.5,701C 1166.73,728.098 1174.9,760.598 1162,798.5C 1154.6,816.81 1142.44,830.976 1125.5,841C 1094.58,858.267 1063.91,875.934 1033.5,894C 993.845,911.536 959.011,904.702 929,873.5C 917.991,860.139 911.324,844.806 909,827.5C 908.333,786.5 908.333,745.5 909,704.5C 914.708,673.249 931.874,650.749 960.5,637C 968.081,634.026 975.748,631.859 983.5,630.5 Z"/>
  </g>
  <g>
    <path style="opacity:1" fill="#010101" d="M 1445.5,689.5 C 1436.56,727.271 1412.89,749.438 1374.5,756C 1360.99,757.535 1347.99,755.702 1335.5,750.5C 1349.31,726.221 1363.14,701.888 1377,677.5C 1387.22,664.09 1400.72,658.923 1417.5,662C 1432.71,665.38 1442.05,674.547 1445.5,689.5 Z"/>
  </g>
  <g>
    <path style="opacity:1" fill="#69696f" d="M 695.5,679.5 C 708.988,703.139 722.488,726.806 736,750.5C 743.167,763 753,772.833 765.5,780C 803.3,798.45 837.133,792.95 867,763.5C 874.485,753.195 881.319,742.529 887.5,731.5C 887.667,766.502 887.5,801.502 887,836.5C 880.067,874.767 857.567,897.934 819.5,906C 796.045,909.388 775.045,903.888 756.5,889.5C 764.553,868.763 764.387,848.097 756,827.5C 730.586,782.337 704.92,737.337 679,692.5C 678.184,691.177 677.017,690.511 675.5,690.5C 681.838,686.329 688.504,682.663 695.5,679.5 Z"/>
  </g>
  <g>
    <path style="opacity:1" fill="#010101" d="M 675.5,690.5 C 677.017,690.511 678.184,691.177 679,692.5C 704.92,737.337 730.586,782.337 756,827.5C 764.387,848.097 764.553,868.763 756.5,889.5C 719.725,868.609 683.058,847.443 646.5,826C 619.255,802.197 611.422,773.03 623,738.5C 627.75,727.5 634.583,718 643.5,710C 653.695,702.736 664.361,696.236 675.5,690.5 Z"/>
  </g>
  <g>
    <path style="opacity:1" fill="#000000" d="M 1429.5,911.5 C 1402.91,938.481 1371.57,945.981 1335.5,934C 1300.3,917.445 1283.63,889.612 1285.5,850.5C 1291.45,810.717 1314.11,786.55 1353.5,778C 1384.52,774.774 1410.02,784.94 1430,808.5C 1449.23,834.561 1452.56,862.561 1440,892.5C 1436.98,899.209 1433.48,905.543 1429.5,911.5 Z"/>
  </g>
  <g>
    <path style="opacity:1" fill="#69696f" d="M 1263.5,936.5 C 1242.85,939.982 1225.68,949.648 1212,965.5C 1184.06,1011.7 1156.9,1058.37 1130.5,1105.5C 1123.97,1102.07 1117.63,1098.4 1111.5,1094.5C 1128.33,1067.52 1144.16,1039.85 1159,1011.5C 1170.52,970.729 1159.02,938.229 1124.5,914C 1104.65,904.136 1083.65,900.303 1061.5,902.5C 1090.61,885.108 1119.94,867.941 1149.5,851C 1189.47,836.866 1222.97,846.033 1250,878.5C 1260.96,896.241 1265.46,915.575 1263.5,936.5 Z"/>
  </g>
  <g>
    <path style="opacity:1" fill="#010101" d="M 745.5,908.5 C 719.569,938.067 687.902,946.567 650.5,934C 640.449,929.65 631.449,923.817 623.5,916.5C 621.276,893.53 630.943,877.697 652.5,869C 664.052,866.057 675.052,867.391 685.5,873C 705.728,884.608 725.728,896.441 745.5,908.5 Z"/>
  </g>
  <g>
    <path style="opacity:1" fill="#6a6a6f" d="M 1285.5,850.5 C 1283.63,889.612 1300.3,917.445 1335.5,934C 1371.57,945.981 1402.91,938.481 1429.5,911.5C 1407.44,949.282 1385.6,987.282 1364,1025.5C 1361.35,1029.97 1358.18,1033.97 1354.5,1037.5C 1361.16,990.632 1342.83,958.132 1299.5,940C 1294.9,938.714 1290.24,937.881 1285.5,937.5C 1285.5,962.5 1285.5,987.5 1285.5,1012.5C 1284.17,958.5 1284.17,904.5 1285.5,850.5 Z"/>
  </g>
  <g>
    <path style="opacity:1" fill="#000000" d="M 1061.5,902.5 C 1083.65,900.303 1104.65,904.136 1124.5,914C 1159.02,938.229 1170.52,970.729 1159,1011.5C 1144.16,1039.85 1128.33,1067.52 1111.5,1094.5C 1083.23,1079.37 1055.57,1063.2 1028.5,1046C 998.356,1016.58 992.19,982.75 1010,944.5C 1014.66,935.837 1020.82,928.337 1028.5,922C 1038.9,914.469 1049.9,907.969 1061.5,902.5 Z"/>
  </g>
  <g>
    <path style="opacity:1" fill="#696a6f" d="M 745.5,908.5 C 764.999,918.746 783.999,929.746 802.5,941.5C 761.046,929.039 727.879,940.373 703,975.5C 690.693,997.759 688.193,1021.09 695.5,1045.5C 673.64,1007.46 651.473,969.463 629,931.5C 626.271,926.811 624.437,921.811 623.5,916.5C 631.449,923.817 640.449,929.65 650.5,934C 687.902,946.567 719.569,938.067 745.5,908.5 Z"/>
  </g>
  <g>
    <path style="opacity:1" fill="#000000" d="M 802.5,941.5 C 838.557,958.266 855.724,986.599 854,1026.5C 845.227,1072.27 817.56,1096.27 771,1098.5C 735.064,1095.97 709.897,1078.3 695.5,1045.5C 688.193,1021.09 690.693,997.759 703,975.5C 727.879,940.373 761.046,929.039 802.5,941.5 Z"/>
  </g>
  <g>
    <path style="opacity:1" fill="#000000" d="M 1263.5,936.5 C 1263.67,979.168 1263.5,1021.83 1263,1064.5C 1254.13,1105.28 1228.8,1126.62 1187,1128.5C 1177.05,1128.31 1167.55,1126.14 1158.5,1122C 1148.94,1116.73 1139.61,1111.23 1130.5,1105.5C 1156.9,1058.37 1184.06,1011.7 1212,965.5C 1225.68,949.648 1242.85,939.982 1263.5,936.5 Z"/>
  </g>
  <g>
    <path style="opacity:1" fill="#000000" d="M 1354.5,1037.5 C 1331.63,1053.98 1310.8,1051.65 1292,1030.5C 1288.54,1024.95 1286.37,1018.95 1285.5,1012.5C 1285.5,987.5 1285.5,962.5 1285.5,937.5C 1290.24,937.881 1294.9,938.714 1299.5,940C 1342.83,958.132 1361.16,990.632 1354.5,1037.5 Z"/>
  </g>
  <g>
    <path style="opacity:1" fill="#000001" d="M 1101.5,1113.5 C 1095.34,1123.81 1089.18,1134.14 1083,1144.5C 1060.13,1170.6 1031.96,1178.76 998.5,1169C 984.099,1163.6 972.265,1154.76 963,1142.5C 941.889,1106.6 921.055,1070.6 900.5,1034.5C 903.865,1032.54 907.532,1031.04 911.5,1030C 928.923,1025.98 945.923,1027.31 962.5,1034C 1009.15,1059.99 1055.49,1086.49 1101.5,1113.5 Z"/>
  </g>
  <g>
    <path style="opacity:1" fill="#69696f" d="M 900.5,1034.5 C 921.055,1070.6 941.889,1106.6 963,1142.5C 972.265,1154.76 984.099,1163.6 998.5,1169C 1031.96,1178.76 1060.13,1170.6 1083,1144.5C 1089.18,1134.14 1095.34,1123.81 1101.5,1113.5C 1120.53,1126.42 1126.03,1143.75 1118,1165.5C 1112.69,1176.81 1104.19,1184.65 1092.5,1189C 1034.88,1190.65 977.211,1190.98 919.5,1190C 905.097,1187.63 892.431,1181.79 881.5,1172.5C 901.88,1175.06 916.38,1167.06 925,1148.5C 929.097,1136.37 928.097,1124.7 922,1113.5C 910.081,1093.33 898.414,1073 887,1052.5C 885.629,1049.73 883.796,1047.4 881.5,1045.5C 887.051,1040.56 893.384,1036.89 900.5,1034.5 Z"/>
  </g>
  <g>
    <path style="opacity:1" fill="#010101" d="M 881.5,1045.5 C 883.796,1047.4 885.629,1049.73 887,1052.5C 898.414,1073 910.081,1093.33 922,1113.5C 928.097,1124.7 929.097,1136.37 925,1148.5C 916.38,1167.06 901.88,1175.06 881.5,1172.5C 858.374,1152.99 848.207,1127.99 851,1097.5C 854.797,1076.21 864.964,1058.88 881.5,1045.5 Z"/>
  </g>
</svg>
